# xmcd CD database file
#
# Track frame offsets:
#	150
#	21580
#	38710
#	57980
#	76038
#	89553
#	110203
#	129815
#	145795
#	168533
#	187450
#	206453
#
# Disc length: 2957 seconds
#
# Revision: 2
# Processed by: cddbd v1.5.2PL0 Copyright (c) Steve Scherf et al.
# Submitted via: CDex 1.70beta2
#
DISCID=ab0b8b0c
DTITLE=Bintangs - Alright Alright
DYEAR=1991
DGENRE=
TTITLE0=Alright Alright
TTITLE1=Four Women
TTITLE2=Jump, Jump Josephine
TTITLE3=Put in a dark place
TTITLE4=Whooa Whooa
TTITLE5=Almond Shaped Eyes
TTITLE6=Precious You
TTITLE7=Soul Rockin'
TTITLE8=Bring it to Jerome
TTITLE9=I'm a Scarecrow
TTITLE10=Fool in love
TTITLE11=Pain Pain Pain
EXTD=0\nVrigin\nCDLS 58719\n YEAR: 1991
EXTT0=
EXTT1=
EXTT2=
EXTT3=
EXTT4=
EXTT5=
EXTT6=
EXTT7=
EXTT8=
EXTT9=
EXTT10=
EXTT11=
PLAYORDER=
